<svg width="1709.001" height="360" viewBox="0 0 1709.001 360" xmlns="http://www.w3.org/2000/svg"><g id="svgGroup" stroke-linecap="round" fill-rule="evenodd" font-size="9pt" stroke="#000" stroke-width="0.25mm" fill="none" style="stroke:#000;stroke-width:0.25mm;fill:none"><path d="M 847 120 A 58.704 58.704 0 0 1 848.219 126.563 Q 849 132.5 849 140 A 111.807 111.807 0 0 1 848.644 149.169 Q 848.278 153.607 847.537 157.48 A 61.552 61.552 0 0 1 847 160 L 827 160 A 58.704 58.704 0 0 1 828.219 166.563 Q 829 172.5 829 180 A 111.807 111.807 0 0 1 828.644 189.169 Q 828.278 193.607 827.537 197.48 A 61.552 61.552 0 0 1 827 200 A 58.704 58.704 0 0 1 828.219 206.563 Q 829 212.5 829 220 A 111.807 111.807 0 0 1 828.644 229.169 Q 828.278 233.607 827.537 237.48 A 61.552 61.552 0 0 1 827 240 L 887 240 Q 885.282 232.695 885.04 223.175 A 125.129 125.129 0 0 1 885 220 A 119.251 119.251 0 0 1 885.27 211.727 Q 885.735 205.063 887 200 L 907 200 Q 905.282 192.695 905.04 183.175 A 125.129 125.129 0 0 1 905 180 A 119.251 119.251 0 0 1 905.27 171.727 Q 905.735 165.063 907 160 L 887 160 Q 885.282 152.695 885.04 143.175 A 125.129 125.129 0 0 1 885 140 A 119.251 119.251 0 0 1 885.27 131.727 Q 885.735 125.063 887 120 L 847 120 L 827 120 A 61.552 61.552 0 0 0 827.537 117.48 Q 828.278 113.607 828.644 109.169 A 111.807 111.807 0 0 0 829 100 Q 829 92.5 828.219 86.563 A 58.704 58.704 0 0 0 827 80 L 787 80 Q 785.735 85.063 785.27 91.727 A 119.251 119.251 0 0 0 785 100 A 125.129 125.129 0 0 0 785.04 103.175 Q 785.282 112.695 787 120 Q 785.735 125.063 785.27 131.727 A 119.251 119.251 0 0 0 785 140 A 125.129 125.129 0 0 0 785.04 143.175 Q 785.282 152.695 787 160 Q 785.735 165.063 785.27 171.727 A 119.251 119.251 0 0 0 785 180 A 125.129 125.129 0 0 0 785.04 183.175 Q 785.282 192.695 787 200 Q 785.735 205.063 785.27 211.727 A 119.251 119.251 0 0 0 785 220 A 125.129 125.129 0 0 0 785.04 223.175 Q 785.282 232.695 787 240 Q 785.735 245.063 785.27 251.727 A 119.251 119.251 0 0 0 785 260 A 125.129 125.129 0 0 0 785.04 263.175 Q 785.282 272.695 787 280 Q 785.735 285.063 785.27 291.727 A 119.251 119.251 0 0 0 785 300 A 125.129 125.129 0 0 0 785.04 303.175 Q 785.282 312.695 787 320 Q 785.735 325.063 785.27 331.727 A 119.251 119.251 0 0 0 785 340 A 125.129 125.129 0 0 0 785.04 343.175 Q 785.282 352.695 787 360 L 827 360 A 61.552 61.552 0 0 0 827.537 357.48 Q 828.278 353.607 828.644 349.169 A 111.807 111.807 0 0 0 829 340 Q 829 332.5 828.219 326.563 A 58.704 58.704 0 0 0 827 320 A 61.552 61.552 0 0 0 827.537 317.48 Q 828.278 313.607 828.644 309.169 A 111.807 111.807 0 0 0 829 300 Q 829 292.5 828.219 286.563 A 58.704 58.704 0 0 0 827 280 L 907 280 A 61.552 61.552 0 0 0 907.537 277.48 Q 908.278 273.607 908.644 269.169 A 111.807 111.807 0 0 0 909 260 Q 909 252.5 908.219 246.563 A 58.704 58.704 0 0 0 907 240 L 927 240 A 61.552 61.552 0 0 0 927.537 237.48 Q 928.278 233.607 928.644 229.169 A 111.807 111.807 0 0 0 929 220 Q 929 212.5 928.219 206.563 A 58.704 58.704 0 0 0 927 200 L 947 200 A 61.552 61.552 0 0 0 947.537 197.48 Q 948.278 193.607 948.644 189.169 A 111.807 111.807 0 0 0 949 180 Q 949 172.5 948.219 166.563 A 58.704 58.704 0 0 0 947 160 L 927 160 A 61.552 61.552 0 0 0 927.537 157.48 Q 928.278 153.607 928.644 149.169 A 111.807 111.807 0 0 0 929 140 Q 929 132.5 928.219 126.563 A 58.704 58.704 0 0 0 927 120 L 907 120 A 61.552 61.552 0 0 0 907.537 117.48 Q 908.278 113.607 908.644 109.169 A 111.807 111.807 0 0 0 909 100 Q 909 92.5 908.219 86.563 A 58.704 58.704 0 0 0 907 80 L 847 80 Q 845.735 85.063 845.27 91.727 A 119.251 119.251 0 0 0 845 100 A 125.129 125.129 0 0 0 845.04 103.175 Q 845.282 112.695 847 120 Z M 457 40 A 58.704 58.704 0 0 1 458.219 46.563 Q 459 52.5 459 60 A 111.807 111.807 0 0 1 458.644 69.169 Q 458.278 73.607 457.537 77.48 A 61.552 61.552 0 0 1 457 80 L 442 80 A 58.704 58.704 0 0 1 443.219 86.563 Q 444 92.5 444 100 A 111.807 111.807 0 0 1 443.644 109.169 Q 443.278 113.607 442.537 117.48 A 61.552 61.552 0 0 1 442 120 L 427 120 A 58.704 58.704 0 0 1 428.219 126.563 Q 429 132.5 429 140 A 111.807 111.807 0 0 1 428.644 149.169 Q 428.278 153.607 427.537 157.48 A 61.552 61.552 0 0 1 427 160 L 487 160 Q 485.282 152.695 485.04 143.175 A 125.129 125.129 0 0 1 485 140 A 119.251 119.251 0 0 1 485.27 131.727 Q 485.735 125.063 487 120 Q 485.282 112.695 485.04 103.175 A 125.129 125.129 0 0 1 485 100 A 119.251 119.251 0 0 1 485.27 91.727 Q 485.735 85.063 487 80 Q 485.282 72.695 485.04 63.175 A 125.129 125.129 0 0 1 485 60 A 119.251 119.251 0 0 1 485.27 51.727 Q 485.735 45.063 487 40 L 457 40 L 432 40 Q 430.735 45.063 430.27 51.727 A 119.251 119.251 0 0 0 430 60 A 125.129 125.129 0 0 0 430.04 63.175 Q 430.282 72.695 432 80 L 417 80 Q 415.735 85.063 415.27 91.727 A 119.251 119.251 0 0 0 415 100 A 125.129 125.129 0 0 0 415.04 103.175 Q 415.282 112.695 417 120 L 402 120 Q 400.735 125.063 400.27 131.727 A 119.251 119.251 0 0 0 400 140 A 125.129 125.129 0 0 0 400.04 143.175 Q 400.282 152.695 402 160 L 387 160 Q 385.735 165.063 385.27 171.727 A 119.251 119.251 0 0 0 385 180 A 125.129 125.129 0 0 0 385.04 183.175 Q 385.282 192.695 387 200 L 487 200 Q 485.735 205.063 485.27 211.727 A 119.251 119.251 0 0 0 485 220 A 125.129 125.129 0 0 0 485.04 223.175 Q 485.282 232.695 487 240 Q 485.735 245.063 485.27 251.727 A 119.251 119.251 0 0 0 485 260 A 125.129 125.129 0 0 0 485.04 263.175 Q 485.282 272.695 487 280 L 527 280 A 61.552 61.552 0 0 0 527.537 277.48 Q 528.278 273.607 528.644 269.169 A 111.807 111.807 0 0 0 529 260 Q 529 252.5 528.219 246.563 A 58.704 58.704 0 0 0 527 240 A 61.552 61.552 0 0 0 527.537 237.48 Q 528.278 233.607 528.644 229.169 A 111.807 111.807 0 0 0 529 220 Q 529 212.5 528.219 206.563 A 58.704 58.704 0 0 0 527 200 L 547 200 A 61.552 61.552 0 0 0 547.537 197.48 Q 548.278 193.607 548.644 189.169 A 111.807 111.807 0 0 0 549 180 Q 549 172.5 548.219 166.563 A 58.704 58.704 0 0 0 547 160 L 527 160 A 61.552 61.552 0 0 0 527.537 157.48 Q 528.278 153.607 528.644 149.169 A 111.807 111.807 0 0 0 529 140 Q 529 132.5 528.219 126.563 A 58.704 58.704 0 0 0 527 120 A 61.552 61.552 0 0 0 527.537 117.48 Q 528.278 113.607 528.644 109.169 A 111.807 111.807 0 0 0 529 100 Q 529 92.5 528.219 86.563 A 58.704 58.704 0 0 0 527 80 A 61.552 61.552 0 0 0 527.537 77.48 Q 528.278 73.607 528.644 69.169 A 111.807 111.807 0 0 0 529 60 Q 529 52.5 528.219 46.563 A 58.704 58.704 0 0 0 527 40 A 61.552 61.552 0 0 0 527.537 37.48 Q 528.278 33.607 528.644 29.169 A 111.807 111.807 0 0 0 529 20 Q 529 12.5 528.219 6.563 A 58.704 58.704 0 0 0 527 0 L 457 0 Q 455.735 5.063 455.27 11.727 A 119.251 119.251 0 0 0 455 20 A 125.129 125.129 0 0 0 455.04 23.175 Q 455.282 32.695 457 40 Z M 322 240 L 337 240 A 58.704 58.704 0 0 1 338.219 246.563 Q 339 252.5 339 260 A 111.807 111.807 0 0 1 338.644 269.169 Q 338.278 273.607 337.537 277.48 A 61.552 61.552 0 0 1 337 280 L 297 280 Q 295.282 272.695 295.04 263.175 A 125.129 125.129 0 0 1 295 260 A 119.251 119.251 0 0 1 295.27 251.727 Q 295.735 245.063 297 240 L 282 240 Q 280.282 232.695 280.04 223.175 A 125.129 125.129 0 0 1 280 220 A 119.251 119.251 0 0 1 280.27 211.727 Q 280.735 205.063 282 200 L 257 200 A 58.704 58.704 0 0 1 258.219 206.563 Q 259 212.5 259 220 A 111.807 111.807 0 0 1 258.644 229.169 Q 258.278 233.607 257.537 237.48 A 61.552 61.552 0 0 1 257 240 L 237 240 A 58.704 58.704 0 0 1 238.219 246.563 Q 239 252.5 239 260 A 111.807 111.807 0 0 1 238.644 269.169 Q 238.278 273.607 237.537 277.48 A 61.552 61.552 0 0 1 237 280 L 197 280 Q 195.282 272.695 195.04 263.175 A 125.129 125.129 0 0 1 195 260 A 119.251 119.251 0 0 1 195.27 251.727 Q 195.735 245.063 197 240 L 217 240 Q 215.282 232.695 215.04 223.175 A 125.129 125.129 0 0 1 215 220 A 119.251 119.251 0 0 1 215.27 211.727 Q 215.735 205.063 217 200 L 237 200 Q 235.282 192.695 235.04 183.175 A 125.129 125.129 0 0 1 235 180 A 119.251 119.251 0 0 1 235.27 171.727 Q 235.735 165.063 237 160 L 217 160 Q 215.282 152.695 215.04 143.175 A 125.129 125.129 0 0 1 215 140 A 119.251 119.251 0 0 1 215.27 131.727 Q 215.735 125.063 217 120 L 197 120 Q 195.282 112.695 195.04 103.175 A 125.129 125.129 0 0 1 195 100 A 119.251 119.251 0 0 1 195.27 91.727 Q 195.735 85.063 197 80 L 237 80 A 58.704 58.704 0 0 1 238.219 86.563 Q 239 92.5 239 100 A 111.807 111.807 0 0 1 238.644 109.169 Q 238.278 113.607 237.537 117.48 A 61.552 61.552 0 0 1 237 120 L 257 120 A 58.704 58.704 0 0 1 258.219 126.563 Q 259 132.5 259 140 A 111.807 111.807 0 0 1 258.644 149.169 Q 258.278 153.607 257.537 157.48 A 61.552 61.552 0 0 1 257 160 L 282 160 Q 280.282 152.695 280.04 143.175 A 125.129 125.129 0 0 1 280 140 A 119.251 119.251 0 0 1 280.27 131.727 Q 280.735 125.063 282 120 L 297 120 Q 295.282 112.695 295.04 103.175 A 125.129 125.129 0 0 1 295 100 A 119.251 119.251 0 0 1 295.27 91.727 Q 295.735 85.063 297 80 L 337 80 A 58.704 58.704 0 0 1 338.219 86.563 Q 339 92.5 339 100 A 111.807 111.807 0 0 1 338.644 109.169 Q 338.278 113.607 337.537 117.48 A 61.552 61.552 0 0 1 337 120 L 322 120 A 58.704 58.704 0 0 1 323.219 126.563 Q 324 132.5 324 140 A 111.807 111.807 0 0 1 323.644 149.169 Q 323.278 153.607 322.537 157.48 A 61.552 61.552 0 0 1 322 160 L 297 160 A 58.704 58.704 0 0 1 298.219 166.563 Q 299 172.5 299 180 A 111.807 111.807 0 0 1 298.644 189.169 Q 298.278 193.607 297.537 197.48 A 61.552 61.552 0 0 1 297 200 L 322 200 A 58.704 58.704 0 0 1 323.219 206.563 Q 324 212.5 324 220 A 111.807 111.807 0 0 1 323.644 229.169 Q 323.278 233.607 322.537 237.48 A 61.552 61.552 0 0 1 322 240 Z M 1487 240 Q 1485.282 232.695 1485.04 223.175 A 125.129 125.129 0 0 1 1485 220 A 119.251 119.251 0 0 1 1485.27 211.727 Q 1485.735 205.063 1487 200 L 1427 200 A 58.704 58.704 0 0 1 1428.219 206.563 Q 1429 212.5 1429 220 A 111.807 111.807 0 0 1 1428.644 229.169 Q 1428.278 233.607 1427.537 237.48 A 61.552 61.552 0 0 1 1427 240 L 1487 240 L 1507 240 Q 1505.735 245.063 1505.27 251.727 A 119.251 119.251 0 0 0 1505 260 A 125.129 125.129 0 0 0 1505.04 263.175 Q 1505.282 272.695 1507 280 L 1547 280 A 61.552 61.552 0 0 0 1547.537 277.48 Q 1548.278 273.607 1548.644 269.169 A 111.807 111.807 0 0 0 1549 260 Q 1549 252.5 1548.219 246.563 A 58.704 58.704 0 0 0 1547 240 L 1527 240 A 61.552 61.552 0 0 0 1527.537 237.48 Q 1528.278 233.607 1528.644 229.169 A 111.807 111.807 0 0 0 1529 220 Q 1529 212.5 1528.219 206.563 A 58.704 58.704 0 0 0 1527 200 A 61.552 61.552 0 0 0 1527.537 197.48 Q 1528.278 193.607 1528.644 189.169 A 111.807 111.807 0 0 0 1529 180 Q 1529 172.5 1528.219 166.563 A 58.704 58.704 0 0 0 1527 160 A 61.552 61.552 0 0 0 1527.537 157.48 Q 1528.278 153.607 1528.644 149.169 A 111.807 111.807 0 0 0 1529 140 Q 1529 132.5 1528.219 126.563 A 58.704 58.704 0 0 0 1527 120 L 1507 120 A 61.552 61.552 0 0 0 1507.537 117.48 Q 1508.278 113.607 1508.644 109.169 A 111.807 111.807 0 0 0 1509 100 Q 1509 92.5 1508.219 86.563 A 58.704 58.704 0 0 0 1507 80 L 1417 80 Q 1415.735 85.063 1415.27 91.727 A 119.251 119.251 0 0 0 1415 100 A 125.129 125.129 0 0 0 1415.04 103.175 Q 1415.282 112.695 1417 120 L 1487 120 Q 1485.735 125.063 1485.27 131.727 A 119.251 119.251 0 0 0 1485 140 A 125.129 125.129 0 0 0 1485.04 143.175 Q 1485.282 152.695 1487 160 L 1407 160 Q 1405.735 165.063 1405.27 171.727 A 119.251 119.251 0 0 0 1405 180 A 125.129 125.129 0 0 0 1405.04 183.175 Q 1405.282 192.695 1407 200 L 1387 200 Q 1385.735 205.063 1385.27 211.727 A 119.251 119.251 0 0 0 1385 220 A 125.129 125.129 0 0 0 1385.04 223.175 Q 1385.282 232.695 1387 240 L 1407 240 Q 1405.735 245.063 1405.27 251.727 A 119.251 119.251 0 0 0 1405 260 A 125.129 125.129 0 0 0 1405.04 263.175 Q 1405.282 272.695 1407 280 L 1487 280 A 61.552 61.552 0 0 0 1487.537 277.48 Q 1488.278 273.607 1488.644 269.169 A 111.807 111.807 0 0 0 1489 260 Q 1489 252.5 1488.219 246.563 A 58.704 58.704 0 0 0 1487 240 Z M 1347 160 L 1307 160 Q 1305.282 152.695 1305.04 143.175 A 125.129 125.129 0 0 1 1305 140 A 119.251 119.251 0 0 1 1305.27 131.727 Q 1305.735 125.063 1307 120 L 1272 120 A 58.704 58.704 0 0 1 1273.219 126.563 Q 1274 132.5 1274 140 A 111.807 111.807 0 0 1 1273.644 149.169 Q 1273.278 153.607 1272.537 157.48 A 61.552 61.552 0 0 1 1272 160 L 1257 160 A 58.704 58.704 0 0 1 1258.219 166.563 Q 1259 172.5 1259 180 A 111.807 111.807 0 0 1 1258.644 189.169 Q 1258.278 193.607 1257.537 197.48 A 61.552 61.552 0 0 1 1257 200 A 58.704 58.704 0 0 1 1258.219 206.563 Q 1259 212.5 1259 220 A 111.807 111.807 0 0 1 1258.644 229.169 Q 1258.278 233.607 1257.537 237.48 A 61.552 61.552 0 0 1 1257 240 L 1287 240 A 58.704 58.704 0 0 1 1288.219 246.563 Q 1289 252.5 1289 260 A 111.807 111.807 0 0 1 1288.644 269.169 Q 1288.278 273.607 1287.537 277.48 A 61.552 61.552 0 0 1 1287 280 L 1187 280 Q 1185.282 272.695 1185.04 263.175 A 125.129 125.129 0 0 1 1185 260 A 119.251 119.251 0 0 1 1185.27 251.727 Q 1185.735 245.063 1187 240 L 1217 240 Q 1215.282 232.695 1215.04 223.175 A 125.129 125.129 0 0 1 1215 220 A 119.251 119.251 0 0 1 1215.27 211.727 Q 1215.735 205.063 1217 200 Q 1215.282 192.695 1215.04 183.175 A 125.129 125.129 0 0 1 1215 180 A 119.251 119.251 0 0 1 1215.27 171.727 Q 1215.735 165.063 1217 160 Q 1215.282 152.695 1215.04 143.175 A 125.129 125.129 0 0 1 1215 140 A 119.251 119.251 0 0 1 1215.27 131.727 Q 1215.735 125.063 1217 120 L 1187 120 Q 1185.282 112.695 1185.04 103.175 A 125.129 125.129 0 0 1 1185 100 A 119.251 119.251 0 0 1 1185.27 91.727 Q 1185.735 85.063 1187 80 L 1237 80 A 58.704 58.704 0 0 1 1238.219 86.563 Q 1239 92.5 1239 100 A 111.807 111.807 0 0 1 1238.644 109.169 Q 1238.278 113.607 1237.537 117.48 A 61.552 61.552 0 0 1 1237 120 L 1257 120 Q 1255.282 112.695 1255.04 103.175 A 125.129 125.129 0 0 1 1255 100 A 119.251 119.251 0 0 1 1255.27 91.727 Q 1255.735 85.063 1257 80 L 1332 80 A 58.704 58.704 0 0 1 1333.219 86.563 Q 1334 92.5 1334 100 A 111.807 111.807 0 0 1 1333.644 109.169 Q 1333.278 113.607 1332.537 117.48 A 61.552 61.552 0 0 1 1332 120 L 1347 120 A 58.704 58.704 0 0 1 1348.219 126.563 Q 1349 132.5 1349 140 A 111.807 111.807 0 0 1 1348.644 149.169 Q 1348.278 153.607 1347.537 157.48 A 61.552 61.552 0 0 1 1347 160 Z M 732 120 L 707 120 A 58.704 58.704 0 0 1 708.219 126.563 Q 709 132.5 709 140 A 111.807 111.807 0 0 1 708.644 149.169 Q 708.278 153.607 707.537 157.48 A 61.552 61.552 0 0 1 707 160 L 732 160 A 58.704 58.704 0 0 1 733.219 166.563 Q 734 172.5 734 180 A 111.807 111.807 0 0 1 733.644 189.169 Q 733.278 193.607 732.537 197.48 A 61.552 61.552 0 0 1 732 200 A 58.704 58.704 0 0 1 733.219 206.563 Q 734 212.5 734 220 A 111.807 111.807 0 0 1 733.644 229.169 Q 733.278 233.607 732.537 237.48 A 61.552 61.552 0 0 1 732 240 L 707 240 A 58.704 58.704 0 0 1 708.219 246.563 Q 709 252.5 709 260 A 111.807 111.807 0 0 1 708.644 269.169 Q 708.278 273.607 707.537 277.48 A 61.552 61.552 0 0 1 707 280 L 627 280 Q 625.282 272.695 625.04 263.175 A 125.129 125.129 0 0 1 625 260 A 119.251 119.251 0 0 1 625.27 251.727 Q 625.735 245.063 627 240 L 602 240 Q 600.282 232.695 600.04 223.175 A 125.129 125.129 0 0 1 600 220 A 119.251 119.251 0 0 1 600.27 211.727 Q 600.735 205.063 602 200 Q 600.282 192.695 600.04 183.175 A 125.129 125.129 0 0 1 600 180 A 119.251 119.251 0 0 1 600.27 171.727 Q 600.735 165.063 602 160 L 627 160 Q 625.282 152.695 625.04 143.175 A 125.129 125.129 0 0 1 625 140 A 119.251 119.251 0 0 1 625.27 131.727 Q 625.735 125.063 627 120 L 602 120 Q 600.282 112.695 600.04 103.175 A 125.129 125.129 0 0 1 600 100 A 119.251 119.251 0 0 1 600.27 91.727 Q 600.735 85.063 602 80 Q 600.282 72.695 600.04 63.175 A 125.129 125.129 0 0 1 600 60 A 119.251 119.251 0 0 1 600.27 51.727 Q 600.735 45.063 602 40 L 627 40 Q 625.282 32.695 625.04 23.175 A 125.129 125.129 0 0 1 625 20 A 119.251 119.251 0 0 1 625.27 11.727 Q 625.735 5.063 627 0 L 707 0 A 58.704 58.704 0 0 1 708.219 6.563 Q 709 12.5 709 20 A 111.807 111.807 0 0 1 708.644 29.169 Q 708.278 33.607 707.537 37.48 A 61.552 61.552 0 0 1 707 40 L 732 40 A 58.704 58.704 0 0 1 733.219 46.563 Q 734 52.5 734 60 A 111.807 111.807 0 0 1 733.644 69.169 Q 733.278 73.607 732.537 77.48 A 61.552 61.552 0 0 1 732 80 A 58.704 58.704 0 0 1 733.219 86.563 Q 734 92.5 734 100 A 111.807 111.807 0 0 1 733.644 109.169 Q 733.278 113.607 732.537 117.48 A 61.552 61.552 0 0 1 732 120 Z M 1707 280 L 1687 280 A 58.704 58.704 0 0 1 1688.219 286.563 Q 1689 292.5 1689 300 A 111.807 111.807 0 0 1 1688.644 309.169 Q 1688.278 313.607 1687.537 317.48 A 61.552 61.552 0 0 1 1687 320 L 1667 320 A 58.704 58.704 0 0 1 1668.219 326.563 Q 1669 332.5 1669 340 A 111.807 111.807 0 0 1 1668.644 349.169 Q 1668.278 353.607 1667.537 357.48 A 61.552 61.552 0 0 1 1667 360 L 1607 360 Q 1605.282 352.695 1605.04 343.175 A 125.129 125.129 0 0 1 1605 340 A 119.251 119.251 0 0 1 1605.27 331.727 Q 1605.735 325.063 1607 320 L 1647 320 Q 1645.282 312.695 1645.04 303.175 A 125.129 125.129 0 0 1 1645 300 A 119.251 119.251 0 0 1 1645.27 291.727 Q 1645.735 285.063 1647 280 L 1667 280 Q 1665.282 272.695 1665.04 263.175 A 125.129 125.129 0 0 1 1665 260 A 119.251 119.251 0 0 1 1665.27 251.727 Q 1665.735 245.063 1667 240 Q 1665.282 232.695 1665.04 223.175 A 125.129 125.129 0 0 1 1665 220 A 119.251 119.251 0 0 1 1665.27 211.727 Q 1665.735 205.063 1667 200 Q 1665.282 192.695 1665.04 183.175 A 125.129 125.129 0 0 1 1665 180 A 119.251 119.251 0 0 1 1665.27 171.727 Q 1665.735 165.063 1667 160 Q 1665.282 152.695 1665.04 143.175 A 125.129 125.129 0 0 1 1665 140 A 119.251 119.251 0 0 1 1665.27 131.727 Q 1665.735 125.063 1667 120 L 1627 120 Q 1625.282 112.695 1625.04 103.175 A 125.129 125.129 0 0 1 1625 100 A 119.251 119.251 0 0 1 1625.27 91.727 Q 1625.735 85.063 1627 80 L 1707 80 A 58.704 58.704 0 0 1 1708.219 86.563 Q 1709 92.5 1709 100 A 111.807 111.807 0 0 1 1708.644 109.169 Q 1708.278 113.607 1707.537 117.48 A 61.552 61.552 0 0 1 1707 120 A 58.704 58.704 0 0 1 1708.219 126.563 Q 1709 132.5 1709 140 A 111.807 111.807 0 0 1 1708.644 149.169 Q 1708.278 153.607 1707.537 157.48 A 61.552 61.552 0 0 1 1707 160 A 58.704 58.704 0 0 1 1708.219 166.563 Q 1709 172.5 1709 180 A 111.807 111.807 0 0 1 1708.644 189.169 Q 1708.278 193.607 1707.537 197.48 A 61.552 61.552 0 0 1 1707 200 A 58.704 58.704 0 0 1 1708.219 206.563 Q 1709 212.5 1709 220 A 111.807 111.807 0 0 1 1708.644 229.169 Q 1708.278 233.607 1707.537 237.48 A 61.552 61.552 0 0 1 1707 240 A 58.704 58.704 0 0 1 1708.219 246.563 Q 1709 252.5 1709 260 A 111.807 111.807 0 0 1 1708.644 269.169 Q 1708.278 273.607 1707.537 277.48 A 61.552 61.552 0 0 1 1707 280 Z M 1127 280 L 1007 280 Q 1005.282 272.695 1005.04 263.175 A 125.129 125.129 0 0 1 1005 260 A 119.251 119.251 0 0 1 1005.27 251.727 Q 1005.735 245.063 1007 240 L 1047 240 Q 1045.282 232.695 1045.04 223.175 A 125.129 125.129 0 0 1 1045 220 A 119.251 119.251 0 0 1 1045.27 211.727 Q 1045.735 205.063 1047 200 Q 1045.282 192.695 1045.04 183.175 A 125.129 125.129 0 0 1 1045 180 A 119.251 119.251 0 0 1 1045.27 171.727 Q 1045.735 165.063 1047 160 Q 1045.282 152.695 1045.04 143.175 A 125.129 125.129 0 0 1 1045 140 A 119.251 119.251 0 0 1 1045.27 131.727 Q 1045.735 125.063 1047 120 L 1017 120 Q 1015.282 112.695 1015.04 103.175 A 125.129 125.129 0 0 1 1015 100 A 119.251 119.251 0 0 1 1015.27 91.727 Q 1015.735 85.063 1017 80 L 1087 80 A 58.704 58.704 0 0 1 1088.219 86.563 Q 1089 92.5 1089 100 A 111.807 111.807 0 0 1 1088.644 109.169 Q 1088.278 113.607 1087.537 117.48 A 61.552 61.552 0 0 1 1087 120 A 58.704 58.704 0 0 1 1088.219 126.563 Q 1089 132.5 1089 140 A 111.807 111.807 0 0 1 1088.644 149.169 Q 1088.278 153.607 1087.537 157.48 A 61.552 61.552 0 0 1 1087 160 A 58.704 58.704 0 0 1 1088.219 166.563 Q 1089 172.5 1089 180 A 111.807 111.807 0 0 1 1088.644 189.169 Q 1088.278 193.607 1087.537 197.48 A 61.552 61.552 0 0 1 1087 200 A 58.704 58.704 0 0 1 1088.219 206.563 Q 1089 212.5 1089 220 A 111.807 111.807 0 0 1 1088.644 229.169 Q 1088.278 233.607 1087.537 237.48 A 61.552 61.552 0 0 1 1087 240 L 1127 240 A 58.704 58.704 0 0 1 1128.219 246.563 Q 1129 252.5 1129 260 A 111.807 111.807 0 0 1 1128.644 269.169 Q 1128.278 273.607 1127.537 277.48 A 61.552 61.552 0 0 1 1127 280 Z M 92 40 L 42 40 L 17 40 Q 15.735 45.063 15.27 51.727 A 119.251 119.251 0 0 0 15 60 A 125.129 125.129 0 0 0 15.04 63.175 Q 15.282 72.695 17 80 L 2 80 Q 0.735 85.063 0.27 91.727 A 119.251 119.251 0 0 0 0 100 A 125.129 125.129 0 0 0 0.04 103.175 Q 0.282 112.695 2 120 Q 0.735 125.063 0.27 131.727 A 119.251 119.251 0 0 0 0 140 A 125.129 125.129 0 0 0 0.04 143.175 Q 0.282 152.695 2 160 Q 0.735 165.063 0.27 171.727 A 119.251 119.251 0 0 0 0 180 A 125.129 125.129 0 0 0 0.04 183.175 Q 0.282 192.695 2 200 L 17 200 Q 15.735 205.063 15.27 211.727 A 119.251 119.251 0 0 0 15 220 A 125.129 125.129 0 0 0 15.04 223.175 Q 15.282 232.695 17 240 L 42 240 L 92 240 L 117 240 A 61.552 61.552 0 0 0 117.537 237.48 Q 118.278 233.607 118.644 229.169 A 111.807 111.807 0 0 0 119 220 Q 119 212.5 118.219 206.563 A 58.704 58.704 0 0 0 117 200 L 132 200 A 61.552 61.552 0 0 0 132.537 197.48 Q 133.278 193.607 133.644 189.169 A 111.807 111.807 0 0 0 134 180 Q 134 172.5 133.219 166.563 A 58.704 58.704 0 0 0 132 160 A 61.552 61.552 0 0 0 132.537 157.48 Q 133.278 153.607 133.644 149.169 A 111.807 111.807 0 0 0 134 140 Q 134 132.5 133.219 126.563 A 58.704 58.704 0 0 0 132 120 A 61.552 61.552 0 0 0 132.537 117.48 Q 133.278 113.607 133.644 109.169 A 111.807 111.807 0 0 0 134 100 Q 134 92.5 133.219 86.563 A 58.704 58.704 0 0 0 132 80 L 117 80 A 61.552 61.552 0 0 0 117.537 77.48 Q 118.278 73.607 118.644 69.169 A 111.807 111.807 0 0 0 119 60 Q 119 52.5 118.219 46.563 A 58.704 58.704 0 0 0 117 40 L 92 40 Z M 692 40 L 642 40 A 58.704 58.704 0 0 1 643.219 46.563 Q 644 52.5 644 60 A 111.807 111.807 0 0 1 643.644 69.169 Q 643.278 73.607 642.537 77.48 A 61.552 61.552 0 0 1 642 80 A 58.704 58.704 0 0 1 643.219 86.563 Q 644 92.5 644 100 A 111.807 111.807 0 0 1 643.644 109.169 Q 643.278 113.607 642.537 117.48 A 61.552 61.552 0 0 1 642 120 L 692 120 Q 690.282 112.695 690.04 103.175 A 125.129 125.129 0 0 1 690 100 A 119.251 119.251 0 0 1 690.27 91.727 Q 690.735 85.063 692 80 Q 690.282 72.695 690.04 63.175 A 125.129 125.129 0 0 1 690 60 A 119.251 119.251 0 0 1 690.27 51.727 Q 690.735 45.063 692 40 Z M 692 160 L 642 160 A 58.704 58.704 0 0 1 643.219 166.563 Q 644 172.5 644 180 A 111.807 111.807 0 0 1 643.644 189.169 Q 643.278 193.607 642.537 197.48 A 61.552 61.552 0 0 1 642 200 A 58.704 58.704 0 0 1 643.219 206.563 Q 644 212.5 644 220 A 111.807 111.807 0 0 1 643.644 229.169 Q 643.278 233.607 642.537 237.48 A 61.552 61.552 0 0 1 642 240 L 692 240 Q 690.282 232.695 690.04 223.175 A 125.129 125.129 0 0 1 690 220 A 119.251 119.251 0 0 1 690.27 211.727 Q 690.735 205.063 692 200 Q 690.282 192.695 690.04 183.175 A 125.129 125.129 0 0 1 690 180 A 119.251 119.251 0 0 1 690.27 171.727 Q 690.735 165.063 692 160 Z M 92 40 Q 90.735 45.063 90.27 51.727 A 119.251 119.251 0 0 0 90 60 A 125.129 125.129 0 0 0 90.04 63.175 Q 90.282 72.695 92 80 Q 90.735 85.063 90.27 91.727 A 119.251 119.251 0 0 0 90 100 A 125.129 125.129 0 0 0 90.04 103.175 Q 90.282 112.695 92 120 Q 90.735 125.063 90.27 131.727 A 119.251 119.251 0 0 0 90 140 A 125.129 125.129 0 0 0 90.04 143.175 Q 90.282 152.695 92 160 Q 90.735 165.063 90.27 171.727 A 119.251 119.251 0 0 0 90 180 A 125.129 125.129 0 0 0 90.04 183.175 Q 90.282 192.695 92 200 Q 90.735 205.063 90.27 211.727 A 119.251 119.251 0 0 0 90 220 A 125.129 125.129 0 0 0 90.04 223.175 Q 90.282 232.695 92 240 M 42 40 A 58.704 58.704 0 0 1 43.219 46.563 Q 44 52.5 44 60 A 111.807 111.807 0 0 1 43.644 69.169 Q 43.278 73.607 42.537 77.48 A 61.552 61.552 0 0 1 42 80 A 58.704 58.704 0 0 1 43.219 86.563 Q 44 92.5 44 100 A 111.807 111.807 0 0 1 43.644 109.169 Q 43.278 113.607 42.537 117.48 A 61.552 61.552 0 0 1 42 120 A 58.704 58.704 0 0 1 43.219 126.563 Q 44 132.5 44 140 A 111.807 111.807 0 0 1 43.644 149.169 Q 43.278 153.607 42.537 157.48 A 61.552 61.552 0 0 1 42 160 A 58.704 58.704 0 0 1 43.219 166.563 Q 44 172.5 44 180 A 111.807 111.807 0 0 1 43.644 189.169 Q 43.278 193.607 42.537 197.48 A 61.552 61.552 0 0 1 42 200 A 58.704 58.704 0 0 1 43.219 206.563 Q 44 212.5 44 220 A 111.807 111.807 0 0 1 43.644 229.169 Q 43.278 233.607 42.537 237.48 A 61.552 61.552 0 0 1 42 240 M 1087 40 L 1047 40 Q 1045.282 32.695 1045.04 23.175 A 125.129 125.129 0 0 1 1045 20 A 119.251 119.251 0 0 1 1045.27 11.727 Q 1045.735 5.063 1047 0 L 1087 0 A 58.704 58.704 0 0 1 1088.219 6.563 Q 1089 12.5 1089 20 A 111.807 111.807 0 0 1 1088.644 29.169 Q 1088.278 33.607 1087.537 37.48 A 61.552 61.552 0 0 1 1087 40 Z M 1707 40 L 1667 40 Q 1665.282 32.695 1665.04 23.175 A 125.129 125.129 0 0 1 1665 20 A 119.251 119.251 0 0 1 1665.27 11.727 Q 1665.735 5.063 1667 0 L 1707 0 A 58.704 58.704 0 0 1 1708.219 6.563 Q 1709 12.5 1709 20 A 111.807 111.807 0 0 1 1708.644 29.169 Q 1708.278 33.607 1707.537 37.48 A 61.552 61.552 0 0 1 1707 40 Z M 92 40 A 61.552 61.552 0 0 0 92.537 37.48 Q 93.278 33.607 93.644 29.169 A 111.807 111.807 0 0 0 94 20 Q 94 12.5 93.219 6.563 A 58.704 58.704 0 0 0 92 0 L 42 0 Q 40.735 5.063 40.27 11.727 A 119.251 119.251 0 0 0 40 20 A 125.129 125.129 0 0 0 40.04 23.175 Q 40.282 32.695 42 40 M 92 240 A 58.704 58.704 0 0 1 93.219 246.563 Q 94 252.5 94 260 A 111.807 111.807 0 0 1 93.644 269.169 Q 93.278 273.607 92.537 277.48 A 61.552 61.552 0 0 1 92 280 L 42 280 Q 40.282 272.695 40.04 263.175 A 125.129 125.129 0 0 1 40 260 A 119.251 119.251 0 0 1 40.27 251.727 Q 40.735 245.063 42 240" vector-effect="non-scaling-stroke"/></g></svg>